{
    "asset" : {
        "generator" : "Khronos glTF Blender I/O v1.8.19",
        "version" : "2.0"
    },
    "scene" : 0,
    "scenes" : [
        {
            "name" : "Scene",
            "nodes" : [
                0
            ]
        }
    ],
    "nodes" : [
        {
            "mesh" : 0,
            "name" : "zero"
        }
    ],
    "meshes" : [
        {
            "name" : "zero",
            "primitives" : [
                {
                    "attributes" : {
                        "POSITION" : 0,
                        "NORMAL" : 1,
                        "TEXCOORD_0" : 2
                    },
                    "indices" : 3
                }
            ]
        }
    ],
    "accessors" : [
        {
            "bufferView" : 0,
            "componentType" : 5126,
            "count" : 7126,
            "max" : [
                0.3664429783821106,
                0.10999999195337296,
                0.018349552527070045
            ],
            "min" : [
                0.010689462535083294,
                -0.10999999195337296,
                -0.4880410134792328
            ],
            "type" : "VEC3"
        },
        {
            "bufferView" : 1,
            "componentType" : 5126,
            "count" : 7126,
            "type" : "VEC3"
        },
        {
            "bufferView" : 2,
            "componentType" : 5126,
            "count" : 7126,
            "type" : "VEC2"
        },
        {
            "bufferView" : 3,
            "componentType" : 5123,
            "count" : 31104,
            "type" : "SCALAR"
        }
    ],
    "bufferViews" : [
        {
            "buffer" : 0,
            "byteLength" : 85512,
            "byteOffset" : 0
        },
        {
            "buffer" : 0,
            "byteLength" : 85512,
            "byteOffset" : 85512
        },
        {
            "buffer" : 0,
            "byteLength" : 57008,
            "byteOffset" : 171024
        },
        {
            "buffer" : 0,
            "byteLength" : 62208,
            "byteOffset" : 228032
        }
    ],
    "buffers" : [
        {
            "byteLength" : 290240,
            "uri" : "data:application/octet-stream;base64,"
        }
    ]
}
