{
    "asset" : {
        "generator" : "Khronos glTF Blender I/O v1.8.19",
        "version" : "2.0"
    },
    "scene" : 0,
    "scenes" : [
        {
            "name" : "Scene",
            "nodes" : [
                0
            ]
        }
    ],
    "nodes" : [
        {
            "mesh" : 0,
            "name" : "one"
        }
    ],
    "meshes" : [
        {
            "name" : "one",
            "primitives" : [
                {
                    "attributes" : {
                        "POSITION" : 0,
                        "NORMAL" : 1,
                        "TEXCOORD_0" : 2
                    },
                    "indices" : 3
                }
            ]
        }
    ],
    "accessors" : [
        {
            "bufferView" : 0,
            "componentType" : 5126,
            "count" : 6208,
            "max" : [
                0.3526498079299927,
                0.10999999195337296,
                0.009999999776482582
            ],
            "min" : [
                0.04372047632932663,
                -0.10999999195337296,
                -0.48295825719833374
            ],
            "type" : "VEC3"
        },
        {
            "bufferView" : 1,
            "componentType" : 5126,
            "count" : 6208,
            "type" : "VEC3"
        },
        {
            "bufferView" : 2,
            "componentType" : 5126,
            "count" : 6208,
            "type" : "VEC2"
        },
        {
            "bufferView" : 3,
            "componentType" : 5123,
            "count" : 28140,
            "type" : "SCALAR"
        }
    ],
    "bufferViews" : [
        {
            "buffer" : 0,
            "byteLength" : 74496,
            "byteOffset" : 0
        },
        {
            "buffer" : 0,
            "byteLength" : 74496,
            "byteOffset" : 74496
        },
        {
            "buffer" : 0,
            "byteLength" : 49664,
            "byteOffset" : 148992
        },
        {
            "buffer" : 0,
            "byteLength" : 56280,
            "byteOffset" : 198656
        }
    ],
    "buffers" : [
        {
            "byteLength" : 254936,
            "uri" : "data:application/octet-stream;base64,"
        }
    ]
}
