{
    "asset" : {
        "generator" : "Khronos glTF Blender I/O v1.8.19",
        "version" : "2.0"
    },
    "scene" : 0,
    "scenes" : [
        {
            "name" : "Scene",
            "nodes" : [
                0
            ]
        }
    ],
    "nodes" : [
        {
            "mesh" : 0,
            "name" : "two"
        }
    ],
    "meshes" : [
        {
            "name" : "one",
            "primitives" : [
                {
                    "attributes" : {
                        "POSITION" : 0,
                        "NORMAL" : 1,
                        "TEXCOORD_0" : 2
                    },
                    "indices" : 3
                }
            ]
        }
    ],
    "accessors" : [
        {
            "bufferView" : 0,
            "componentType" : 5126,
            "count" : 9544,
            "max" : [
                0.3570055067539215,
                0.10999999195337296,
                0.010000000707805157
            ],
            "min" : [
                0.021941818296909332,
                -0.10999999195337296,
                -0.48804032802581787
            ],
            "type" : "VEC3"
        },
        {
            "bufferView" : 1,
            "componentType" : 5126,
            "count" : 9544,
            "type" : "VEC3"
        },
        {
            "bufferView" : 2,
            "componentType" : 5126,
            "count" : 9544,
            "type" : "VEC2"
        },
        {
            "bufferView" : 3,
            "componentType" : 5123,
            "count" : 41748,
            "type" : "SCALAR"
        }
    ],
    "bufferViews" : [
        {
            "buffer" : 0,
            "byteLength" : 114528,
            "byteOffset" : 0
        },
        {
            "buffer" : 0,
            "byteLength" : 114528,
            "byteOffset" : 114528
        },
        {
            "buffer" : 0,
            "byteLength" : 76352,
            "byteOffset" : 229056
        },
        {
            "buffer" : 0,
            "byteLength" : 83496,
            "byteOffset" : 305408
        }
    ],
    "buffers" : [
        {
            "byteLength" : 388904,
            "uri" : "data:application/octet-stream;base64,"
        }
    ]
}
