{
    "asset" : {
        "generator" : "Khronos glTF Blender I/O v1.8.19",
        "version" : "2.0"
    },
    "scene" : 0,
    "scenes" : [
        {
            "name" : "Scene",
            "nodes" : [
                0
            ]
        }
    ],
    "nodes" : [
        {
            "mesh" : 0,
            "name" : "three"
        }
    ],
    "meshes" : [
        {
            "name" : "one",
            "primitives" : [
                {
                    "attributes" : {
                        "POSITION" : 0,
                        "NORMAL" : 1,
                        "TEXCOORD_0" : 2
                    },
                    "indices" : 3
                }
            ]
        }
    ],
    "accessors" : [
        {
            "bufferView" : 0,
            "componentType" : 5126,
            "count" : 13728,
            "max" : [
                0.35482871532440186,
                0.10999999195337296,
                0.01834876462817192
            ],
            "min" : [
                0.020852915942668915,
                -0.10999999195337296,
                -0.4880402684211731
            ],
            "type" : "VEC3"
        },
        {
            "bufferView" : 1,
            "componentType" : 5126,
            "count" : 13728,
            "type" : "VEC3"
        },
        {
            "bufferView" : 2,
            "componentType" : 5126,
            "count" : 13728,
            "type" : "VEC2"
        },
        {
            "bufferView" : 3,
            "componentType" : 5123,
            "count" : 60684,
            "type" : "SCALAR"
        }
    ],
    "bufferViews" : [
        {
            "buffer" : 0,
            "byteLength" : 164736,
            "byteOffset" : 0
        },
        {
            "buffer" : 0,
            "byteLength" : 164736,
            "byteOffset" : 164736
        },
        {
            "buffer" : 0,
            "byteLength" : 109824,
            "byteOffset" : 329472
        },
        {
            "buffer" : 0,
            "byteLength" : 121368,
            "byteOffset" : 439296
        }
    ],
    "buffers" : [
        {
            "byteLength" : 560664,
            "uri" : "data:application/octet-stream;base64,"
        }
    ]
}
