{
    "asset" : {
        "generator" : "Khronos glTF Blender I/O v1.8.19",
        "version" : "2.0"
    },
    "scene" : 0,
    "scenes" : [
        {
            "name" : "Scene",
            "nodes" : [
                0
            ]
        }
    ],
    "nodes" : [
        {
            "mesh" : 0,
            "name" : "four"
        }
    ],
    "meshes" : [
        {
            "name" : "one",
            "primitives" : [
                {
                    "attributes" : {
                        "POSITION" : 0,
                        "NORMAL" : 1,
                        "TEXCOORD_0" : 2
                    },
                    "indices" : 3
                }
            ]
        }
    ],
    "accessors" : [
        {
            "bufferView" : 0,
            "componentType" : 5126,
            "count" : 5802,
            "max" : [
                0.3715248703956604,
                0.10999999195337296,
                0.012177899479866028
            ],
            "min" : [
                0.0030671125277876854,
                -0.10999999195337296,
                -0.48186933994293213
            ],
            "type" : "VEC3"
        },
        {
            "bufferView" : 1,
            "componentType" : 5126,
            "count" : 5802,
            "type" : "VEC3"
        },
        {
            "bufferView" : 2,
            "componentType" : 5126,
            "count" : 5802,
            "type" : "VEC2"
        },
        {
            "bufferView" : 3,
            "componentType" : 5123,
            "count" : 24984,
            "type" : "SCALAR"
        }
    ],
    "bufferViews" : [
        {
            "buffer" : 0,
            "byteLength" : 69624,
            "byteOffset" : 0
        },
        {
            "buffer" : 0,
            "byteLength" : 69624,
            "byteOffset" : 69624
        },
        {
            "buffer" : 0,
            "byteLength" : 46416,
            "byteOffset" : 139248
        },
        {
            "buffer" : 0,
            "byteLength" : 49968,
            "byteOffset" : 185664
        }
    ],
    "buffers" : [
        {
            "byteLength" : 235632,
            "uri" : "data:application/octet-stream;base64,"
        }
    ]
}
