{
    "asset" : {
        "generator" : "Khronos glTF Blender I/O v1.8.19",
        "version" : "2.0"
    },
    "scene" : 0,
    "scenes" : [
        {
            "name" : "Scene",
            "nodes" : [
                0
            ]
        }
    ],
    "nodes" : [
        {
            "mesh" : 0,
            "name" : "five"
        }
    ],
    "meshes" : [
        {
            "name" : "one",
            "primitives" : [
                {
                    "attributes" : {
                        "POSITION" : 0,
                        "NORMAL" : 1,
                        "TEXCOORD_0" : 2
                    },
                    "indices" : 3
                }
            ]
        }
    ],
    "accessors" : [
        {
            "bufferView" : 0,
            "componentType" : 5126,
            "count" : 9168,
            "max" : [
                0.3526507019996643,
                0.10999999195337296,
                0.01834874600172043
            ],
            "min" : [
                0.024845708161592484,
                -0.10999999195337296,
                -0.47969144582748413
            ],
            "type" : "VEC3"
        },
        {
            "bufferView" : 1,
            "componentType" : 5126,
            "count" : 9168,
            "type" : "VEC3"
        },
        {
            "bufferView" : 2,
            "componentType" : 5126,
            "count" : 9168,
            "type" : "VEC2"
        },
        {
            "bufferView" : 3,
            "componentType" : 5123,
            "count" : 40020,
            "type" : "SCALAR"
        }
    ],
    "bufferViews" : [
        {
            "buffer" : 0,
            "byteLength" : 110016,
            "byteOffset" : 0
        },
        {
            "buffer" : 0,
            "byteLength" : 110016,
            "byteOffset" : 110016
        },
        {
            "buffer" : 0,
            "byteLength" : 73344,
            "byteOffset" : 220032
        },
        {
            "buffer" : 0,
            "byteLength" : 80040,
            "byteOffset" : 293376
        }
    ],
    "buffers" : [
        {
            "byteLength" : 373416,
            "uri" : "data:application/octet-stream;base64,"
        }
    ]
}
