{
    "asset" : {
        "generator" : "Khronos glTF Blender I/O v1.8.19",
        "version" : "2.0"
    },
    "scene" : 0,
    "scenes" : [
        {
            "name" : "Scene",
            "nodes" : [
                0
            ]
        }
    ],
    "nodes" : [
        {
            "mesh" : 0,
            "name" : "six"
        }
    ],
    "meshes" : [
        {
            "name" : "one",
            "primitives" : [
                {
                    "attributes" : {
                        "POSITION" : 0,
                        "NORMAL" : 1,
                        "TEXCOORD_0" : 2
                    },
                    "indices" : 3
                }
            ]
        }
    ],
    "accessors" : [
        {
            "bufferView" : 0,
            "componentType" : 5126,
            "count" : 12080,
            "max" : [
                0.3642656207084656,
                0.10999999195337296,
                0.01834908500313759
            ],
            "min" : [
                0.020489949733018875,
                -0.10999999195337296,
                -0.4876772165298462
            ],
            "type" : "VEC3"
        },
        {
            "bufferView" : 1,
            "componentType" : 5126,
            "count" : 12080,
            "type" : "VEC3"
        },
        {
            "bufferView" : 2,
            "componentType" : 5126,
            "count" : 12080,
            "type" : "VEC2"
        },
        {
            "bufferView" : 3,
            "componentType" : 5123,
            "count" : 51840,
            "type" : "SCALAR"
        }
    ],
    "bufferViews" : [
        {
            "buffer" : 0,
            "byteLength" : 144960,
            "byteOffset" : 0
        },
        {
            "buffer" : 0,
            "byteLength" : 144960,
            "byteOffset" : 144960
        },
        {
            "buffer" : 0,
            "byteLength" : 96640,
            "byteOffset" : 289920
        },
        {
            "buffer" : 0,
            "byteLength" : 103680,
            "byteOffset" : 386560
        }
    ],
    "buffers" : [
        {
            "byteLength" : 490240,
            "uri" : "data:application/octet-stream;base64,"
        }
    ]
}
