{
    "asset" : {
        "generator" : "Khronos glTF Blender I/O v1.8.19",
        "version" : "2.0"
    },
    "scene" : 0,
    "scenes" : [
        {
            "name" : "Scene",
            "nodes" : [
                0
            ]
        }
    ],
    "nodes" : [
        {
            "mesh" : 0,
            "name" : "seven"
        }
    ],
    "meshes" : [
        {
            "name" : "seven",
            "primitives" : [
                {
                    "attributes" : {
                        "POSITION" : 0,
                        "NORMAL" : 1,
                        "TEXCOORD_0" : 2
                    },
                    "indices" : 3
                }
            ]
        }
    ],
    "accessors" : [
        {
            "bufferView" : 0,
            "componentType" : 5126,
            "count" : 4442,
            "max" : [
                0.3566425144672394,
                0.10999999195337296,
                0.012177880853414536
            ],
            "min" : [
                0.019400931894779205,
                -0.10999999195337296,
                -0.47969144582748413
            ],
            "type" : "VEC3"
        },
        {
            "bufferView" : 1,
            "componentType" : 5126,
            "count" : 4442,
            "type" : "VEC3"
        },
        {
            "bufferView" : 2,
            "componentType" : 5126,
            "count" : 4442,
            "type" : "VEC2"
        },
        {
            "bufferView" : 3,
            "componentType" : 5123,
            "count" : 19284,
            "type" : "SCALAR"
        }
    ],
    "bufferViews" : [
        {
            "buffer" : 0,
            "byteLength" : 53304,
            "byteOffset" : 0
        },
        {
            "buffer" : 0,
            "byteLength" : 53304,
            "byteOffset" : 53304
        },
        {
            "buffer" : 0,
            "byteLength" : 35536,
            "byteOffset" : 106608
        },
        {
            "buffer" : 0,
            "byteLength" : 38568,
            "byteOffset" : 142144
        }
    ],
    "buffers" : [
        {
            "byteLength" : 180712,
            "uri" : "data:application/octet-stream;base64,"
        }
    ]
}
