{
    "asset" : {
        "generator" : "Khronos glTF Blender I/O v1.8.19",
        "version" : "2.0"
    },
    "scene" : 0,
    "scenes" : [
        {
            "name" : "Scene",
            "nodes" : [
                0
            ]
        }
    ],
    "nodes" : [
        {
            "mesh" : 0,
            "name" : "eight"
        }
    ],
    "meshes" : [
        {
            "name" : "eight",
            "primitives" : [
                {
                    "attributes" : {
                        "POSITION" : 0,
                        "NORMAL" : 1,
                        "TEXCOORD_0" : 2
                    },
                    "indices" : 3
                }
            ]
        }
    ],
    "accessors" : [
        {
            "bufferView" : 0,
            "componentType" : 5126,
            "count" : 11218,
            "max" : [
                0.36426594853401184,
                0.10999999195337296,
                0.01834883540868759
            ],
            "min" : [
                0.012140646576881409,
                -0.10999999195337296,
                -0.48804035782814026
            ],
            "type" : "VEC3"
        },
        {
            "bufferView" : 1,
            "componentType" : 5126,
            "count" : 11218,
            "type" : "VEC3"
        },
        {
            "bufferView" : 2,
            "componentType" : 5126,
            "count" : 11218,
            "type" : "VEC2"
        },
        {
            "bufferView" : 3,
            "componentType" : 5123,
            "count" : 48396,
            "type" : "SCALAR"
        }
    ],
    "bufferViews" : [
        {
            "buffer" : 0,
            "byteLength" : 134616,
            "byteOffset" : 0
        },
        {
            "buffer" : 0,
            "byteLength" : 134616,
            "byteOffset" : 134616
        },
        {
            "buffer" : 0,
            "byteLength" : 89744,
            "byteOffset" : 269232
        },
        {
            "buffer" : 0,
            "byteLength" : 96792,
            "byteOffset" : 358976
        }
    ],
    "buffers" : [
        {
            "byteLength" : 455768,
            "uri" : "data:application/octet-stream;base64,"
        }
    ]
}
