{
    "asset" : {
        "generator" : "Khronos glTF Blender I/O v1.8.19",
        "version" : "2.0"
    },
    "scene" : 0,
    "scenes" : [
        {
            "name" : "Scene",
            "nodes" : [
                0
            ]
        }
    ],
    "nodes" : [
        {
            "mesh" : 0,
            "name" : "bomb",
            "scale" : [
                0.5,
                0.5,
                0.5
            ]
        }
    ],
    "meshes" : [
        {
            "name" : "Sphere.001",
            "primitives" : [
                {
                    "attributes" : {
                        "POSITION" : 0,
                        "NORMAL" : 1,
                        "TEXCOORD_0" : 2
                    },
                    "indices" : 3
                }
            ]
        }
    ],
    "accessors" : [
        {
            "bufferView" : 0,
            "componentType" : 5126,
            "count" : 4288,
            "max" : [
                1.454545497894287,
                1.4545456171035767,
                1.454545497894287
            ],
            "min" : [
                -1.4545419216156006,
                -1.4545447826385498,
                -1.4545419216156006
            ],
            "type" : "VEC3"
        },
        {
            "bufferView" : 1,
            "componentType" : 5126,
            "count" : 4288,
            "type" : "VEC3"
        },
        {
            "bufferView" : 2,
            "componentType" : 5126,
            "count" : 4288,
            "type" : "VEC2"
        },
        {
            "bufferView" : 3,
            "componentType" : 5123,
            "count" : 6228,
            "type" : "SCALAR"
        }
    ],
    "bufferViews" : [
        {
            "buffer" : 0,
            "byteLength" : 51456,
            "byteOffset" : 0
        },
        {
            "buffer" : 0,
            "byteLength" : 51456,
            "byteOffset" : 51456
        },
        {
            "buffer" : 0,
            "byteLength" : 34304,
            "byteOffset" : 102912
        },
        {
            "buffer" : 0,
            "byteLength" : 12456,
            "byteOffset" : 137216
        }
    ],
    "buffers" : [
        {
            "byteLength" : 149672,
            "uri" : "data:application/octet-stream;base64,"
        }
    ]
}
