<svg id="Layer_2" data-name="Layer 2" xmlns="http://www.w3.org/2000/svg" viewBox="0 0 12.76 31.39"><defs><style>.cls-1{fill:#fff;}</style></defs><path class="cls-1" d="M22.19,10.75a.51.51,0,0,0-.69.48v1.22a1.5,1.5,0,1,1-3,0V11.23a.51.51,0,0,0-.69-.48,6.38,6.38,0,0,0-4.19,6v6.52a6.38,6.38,0,0,0,4.29,6,.51.51,0,0,0,.69-.47V27.55a1.5,1.5,0,0,1,3,0v1.2a.51.51,0,0,0,.7.47,6.37,6.37,0,0,0,4.08-5.95V16.75A6.38,6.38,0,0,0,22.19,10.75ZM21,18.07a.95.95,0,0,1-1.9,0V16A.95.95,0,1,1,21,16Z" transform="translate(-13.62 -4.3)"/><path class="cls-1" d="M23,7.13,20.35,4.45h0l-.06,0-.1-.07h0l-.08,0L20,4.3l-.06,0-.12,0-.17.11h0L17.06,7.13a.5.5,0,0,0,0,.71.45.45,0,0,0,.34.14.51.51,0,0,0,.36-.15L19.5,6v6.41a.5.5,0,1,0,1,0V6l1.82,1.82a.51.51,0,0,0,.36.15A.5.5,0,0,0,23,7.13Z" transform="translate(-13.62 -4.3)"/><path class="cls-1" d="M17.07,32.87l2.68,2.68h0l.06,0,.1.07h0l.08,0,.11,0,.06,0,.12,0,.17-.11h0L23,32.87a.5.5,0,0,0,0-.71.45.45,0,0,0-.34-.14.51.51,0,0,0-.36.15L20.6,34V27.55a.5.5,0,0,0-1,0V34l-1.82-1.82a.51.51,0,0,0-.36-.15.5.5,0,0,0-.35.85Z" transform="translate(-13.62 -4.3)"/></svg>